<svg width="290" height="368" viewBox="0 0 290 368" fill="none" xmlns="http://www.w3.org/2000/svg">
<path d="M241.667 58L183.667 0H106.333L48.3333 58H19.3333V328.667C19.3333 349.933 36.7333 367.333 58 367.333H232C253.267 367.333 270.667 349.933 270.667 328.667V58H241.667Z" fill="#5C5C5C"/>
<path d="M149.833 319H140.167C132.433 319 125.667 312.233 125.667 304.5V120.833C125.667 113.1 132.433 106.333 140.167 106.333H149.833C157.567 106.333 164.333 113.1 164.333 120.833V304.5C164.333 312.233 157.567 319 149.833 319ZM217.5 319C209.767 319 203 312.233 203 304.5V120.833C203 113.1 209.767 106.333 217.5 106.333C225.233 106.333 232 113.1 232 120.833V304.5C232 312.233 225.233 319 217.5 319ZM72.5 319C64.7667 319 58 312.233 58 304.5V120.833C58 113.1 64.7667 106.333 72.5 106.333C80.2333 106.333 87 113.1 87 120.833V304.5C87 312.233 80.2333 319 72.5 319Z" fill="#868489"/>
<path d="M19.3333 19.3333H270.667C281.3 19.3333 290 28.0333 290 38.6667V58H0V38.6667C0 28.0333 8.7 19.3333 19.3333 19.3333Z" fill="#9F9F9F"/>
</svg>
